<?xml version="1.0" encoding="UTF-8" standalone="no"?>
<svg viewBox="0 0 202 188" version="1.1" xmlns="http://www.w3.org/2000/svg" style="color-scheme:light dark;fill:light-dark(#0969da,#4493f8);fill-rule:evenodd;clip-rule:evenodd;stroke-linejoin:round;stroke-miterlimit:2;">
  <path d="M15.622,108.116l-0,-16.594l31.4,-0l-0,16.594l-31.4,0Zm31.4,-38.546l-0,15.941l-31.4,-0l-0,-15.941l31.4,-0Zm-37.734,-6.142l0,55.076l6.334,0l-0,-4.246l31.4,-0l-0,3.985l6.6,-0l-0,-54.815l-44.334,0Z" style="fill-rule:nonzero;"/>
  <path d="M126.888,78.586l0,-6.142l-25.8,0l0,-13.197l-6.533,-0l-0,13.197l-25.533,0l-0,6.142l21.8,-0c-5.467,10.649 -14.467,20.645 -24.134,25.676c1.334,1.241 3.4,3.528 4.4,5.03c9.334,-5.488 17.6,-14.634 23.467,-25.218l-0,17.378l-12.2,0l-0,6.142l12.2,-0l-0,11.564l6.533,-0l0,-11.564l11.934,-0l-0,-6.142l-11.934,0l0,-17.444c5.867,10.584 14.067,19.796 23.6,25.088c1,-1.633 3.2,-4.116 4.667,-5.357c-10,-4.965 -19.067,-14.635 -24.467,-25.153l22,-0Z" style="fill-rule:nonzero;"/>
  <path d="M155.822,61.403l-18.4,-0l-0,4.769l18.4,0l-0,-4.769Zm2.333,8.82l-24.267,-0l0,4.835l24.267,-0l-0,-4.835Zm-2.333,9.081l-18.8,0l-0,4.704l18.8,0l-0,-4.704Zm-18.8,13.59l18.8,-0l-0,-4.704l-18.8,-0l-0,4.704Zm13.8,9.212l-0,9.408l-8.6,-0l-0,-9.408l8.6,-0Zm5.4,-4.9l-19.334,-0l0,21.952l5.334,-0l-0,-2.81l14,0l-0,-19.142Zm29,3.789l-0,9.996l-16.467,-0l-0,-9.996l16.467,-0Zm-22.334,18.163l5.867,-0l-0,-2.744l16.467,-0l-0,2.482l6.066,0l0,-23.389l-28.4,-0l0,23.651Zm20.8,-41.552l0,8.297l-11.066,-0c0.466,-2.483 1,-5.292 1.533,-8.297l9.533,-0Zm5.934,8.297l-0,-13.459l-14.6,0c0.266,-1.96 0.6,-3.854 0.866,-5.749l17.267,-0l-0,-5.292l-32.867,-0l0,5.292l9.534,-0c-0.267,1.829 -0.6,3.789 -0.867,5.749l-7.6,0l-0,5.162l6.733,-0c-0.466,2.94 -1,5.814 -1.533,8.297l-8.4,-0l-0,5.357l37.267,0l-0,-5.357l-5.8,-0Z" style="fill-rule:nonzero;"/>
  <rect x="4.831" y="126.562" width="193.057" height="4.167" style="fill-rule:nonzero;"/>
</svg>
