<?xml version="1.0" encoding="UTF-8" standalone="no"?>
<svg viewBox="0 0 224 188" version="1.1" xmlns="http://www.w3.org/2000/svg" style="color-scheme:light dark;fill:light-dark(#0969da,#4493f8);fill-rule:evenodd;clip-rule:evenodd;stroke-linejoin:round;stroke-miterlimit:2;">
  <path d="M34.601,111.321l-26.204,-0l-0,-45.746l25.162,-0l0,6.444l-17.415,-0l0,12.952l16.048,-0l0,6.412l-16.048,-0l0,13.526l18.457,-0l0,6.412Z" style="fill-rule:nonzero;"/>
  <path d="M71.743,111.321l-7.552,-0l-0,-18.407c-0,-6.104 -2.203,-9.156 -6.608,-9.156c-2.3,0 -4.199,0.846 -5.697,2.536c-1.497,1.691 -2.246,3.823 -2.246,6.397l0,18.63l-7.584,-0l-0,-32.667l7.584,0l0,5.423l0.13,0c2.496,-4.126 6.098,-6.188 10.808,-6.188c3.624,-0 6.391,1.153 8.3,3.461c1.91,2.307 2.865,5.641 2.865,10.001l0,19.97Z" style="fill-rule:nonzero;"/>
  <path d="M111.294,108.705c-0,11.995 -6.152,17.992 -18.457,17.992c-4.34,0 -8.127,-0.712 -11.361,-2.137l0,-6.763c3.646,2.041 7.107,3.062 10.384,3.062c7.921,0 11.882,-3.817 11.882,-11.452l-0,-3.573l-0.13,-0c-2.496,4.168 -6.25,6.252 -11.263,6.252c-4.059,0 -7.33,-1.451 -9.815,-4.354c-2.485,-2.903 -3.727,-6.8 -3.727,-11.692c-0,-5.551 1.335,-9.964 4.004,-13.239c2.669,-3.275 6.337,-4.912 11.002,-4.912c4.406,-0 7.672,1.765 9.799,5.295l0.13,0l-0,-4.53l7.552,0l-0,30.051Zm-7.487,-12.346l-0,-4.243c-0,-2.296 -0.776,-4.258 -2.328,-5.885c-1.551,-1.627 -3.488,-2.441 -5.81,-2.441c-2.865,0 -5.105,1.037 -6.722,3.111c-1.617,2.073 -2.425,4.971 -2.425,8.693c-0,3.211 0.776,5.779 2.327,7.704c1.552,1.924 3.608,2.887 6.169,2.887c2.604,-0 4.72,-0.92 6.347,-2.76c1.628,-1.839 2.442,-4.195 2.442,-7.066Z" style="fill-rule:nonzero;"/>
  <rect x="121.125" y="62.959" width="7.585" height="48.362" style="fill-rule:nonzero;"/>
  <path d="M142.349,71.795c-1.237,0 -2.295,-0.393 -3.174,-1.18c-0.879,-0.787 -1.319,-1.786 -1.319,-2.999c0,-1.212 0.44,-2.222 1.319,-3.03c0.879,-0.808 1.937,-1.212 3.174,-1.212c1.28,-0 2.365,0.404 3.255,1.212c0.889,0.808 1.334,1.818 1.334,3.03c0,1.149 -0.445,2.132 -1.334,2.951c-0.89,0.819 -1.975,1.228 -3.255,1.228Zm3.743,39.526l-7.552,-0l-0,-32.667l7.552,0l0,32.667Z" style="fill-rule:nonzero;"/>
  <path d="M153.872,110.3l-0,-6.859c2.821,2.106 5.935,3.158 9.342,3.158c4.558,0 6.836,-1.318 6.836,-3.955c0,-0.745 -0.195,-1.377 -0.586,-1.898c-0.39,-0.521 -0.916,-0.984 -1.578,-1.388c-0.662,-0.404 -1.443,-0.766 -2.344,-1.085c-0.901,-0.319 -1.904,-0.68 -3.011,-1.084c-1.367,-0.532 -2.599,-1.096 -3.695,-1.691c-1.096,-0.596 -2.007,-1.271 -2.734,-2.026c-0.727,-0.755 -1.275,-1.611 -1.644,-2.568c-0.369,-0.957 -0.553,-2.073 -0.553,-3.349c-0,-1.574 0.379,-2.962 1.139,-4.164c0.759,-1.201 1.779,-2.211 3.06,-3.03c1.28,-0.819 2.734,-1.436 4.362,-1.85c1.627,-0.415 3.309,-0.622 5.045,-0.622c3.082,-0 5.838,0.457 8.269,1.371l-0,6.476c-2.344,-1.574 -5.035,-2.36 -8.073,-2.36c-0.955,-0 -1.818,0.095 -2.588,0.287c-0.771,0.191 -1.427,0.457 -1.97,0.797c-0.542,0.34 -0.965,0.75 -1.269,1.228c-0.304,0.479 -0.456,1.005 -0.456,1.579c0,0.702 0.152,1.298 0.456,1.787c0.304,0.489 0.754,0.92 1.351,1.292c0.596,0.372 1.313,0.712 2.148,1.021c0.836,0.308 1.796,0.643 2.881,1.005c1.432,0.574 2.718,1.159 3.857,1.754c1.14,0.596 2.111,1.271 2.914,2.026c0.803,0.755 1.421,1.627 1.855,2.616c0.434,0.989 0.651,2.164 0.651,3.525c0,1.659 -0.39,3.105 -1.172,4.338c-0.781,1.234 -1.822,2.255 -3.125,3.063c-1.302,0.808 -2.804,1.409 -4.508,1.802c-1.704,0.394 -3.499,0.59 -5.387,0.59c-3.646,0 -6.804,-0.595 -9.473,-1.786Z" style="fill-rule:nonzero;"/>
  <path d="M214.321,111.321l-7.552,-0l0,-17.865c0,-6.465 -2.203,-9.698 -6.608,-9.698c-2.214,0 -4.08,0.936 -5.599,2.808c-1.519,1.871 -2.279,4.264 -2.279,7.177l0,17.578l-7.584,-0l-0,-48.362l7.584,-0l0,21.118l0.131,0c2.517,-4.126 6.119,-6.188 10.807,-6.188c7.4,-0 11.1,4.434 11.1,13.302l0,20.13Z" style="fill-rule:nonzero;"/>
  <path d="M72.232,121.282c0.13,1.496 0.75,2.897 1.774,4.166l-69.415,0l-0,-4.166l67.641,-0Zm46.49,-0l99.864,-0l-0,4.166l-102.939,0c1.436,-1.284 2.49,-2.691 3.075,-4.166Z" style="fill-rule:nonzero;"/>
</svg>
