<?xml version="1.0" encoding="UTF-8" standalone="no"?>
<svg viewBox="0 0 337 78" xmlns="http://www.w3.org/2000/svg" style="color-scheme: light dark; fill: light-dark(#1f2328, #f0f6fc)">
  <path d="M17.584 59.235c-2.552 0-4.908-.209-7.066-.626a74.012 74.012 0 0 1-6.787-1.671c-1.532-.464-2.646-.719-3.342-.766l.627-13.018H7.49l1.74 8.911c.511.603 1.451 1.137 2.82 1.601 1.369.464 3.005.696 4.908.696 2.831 0 4.954-.626 6.37-1.879 1.415-1.253 2.123-2.971 2.123-5.152 0-1.531-.453-2.866-1.358-4.003s-2.158-2.181-3.759-3.133c-1.601-.951-3.794-2.053-6.579-3.306-3.666-1.671-6.764-3.794-9.293-6.37C1.932 27.943.668 24.544.668 20.32c0-2.599.673-4.966 2.019-7.1 1.346-2.135 3.388-3.853 6.126-5.152 2.738-1.3 6.149-1.949 10.233-1.949 2.46 0 4.606.162 6.44.487 1.833.325 3.794.766 5.882 1.323 1.114.371 1.973.58 2.576.626l-.418 12.392h-6.335l-1.601-8.563c-.325-.418-1.056-.8-2.193-1.149-1.137-.348-2.402-.522-3.794-.522-2.552 0-4.467.604-5.743 1.81-1.276 1.207-1.915 2.762-1.915 4.665 0 1.67.534 3.132 1.602 4.385 1.067 1.253 2.355 2.309 3.863 3.168 1.509.858 3.818 2.054 6.927 3.585 2.46 1.207 4.606 2.425 6.439 3.655 1.834 1.23 3.4 2.819 4.699 4.769 1.3 1.949 1.95 4.223 1.95 6.822 0 2.552-.615 5.012-1.845 7.379s-3.33 4.339-6.3 5.917c-2.971 1.578-6.869 2.367-11.696 2.367ZM58.17 59.235c-6.358 0-11.069-1.798-14.132-5.395-3.063-3.597-4.594-8.505-4.594-14.724 0-4.223.789-7.866 2.366-10.929 1.578-3.063 3.794-5.395 6.649-6.997 2.854-1.601 6.207-2.401 10.059-2.401 4.873 0 8.598 1.23 11.173 3.689 2.576 2.46 3.91 5.941 4.003 10.443 0 2.97-.209 5.36-.626 7.17h-21.79c.232 3.945 1.195 6.95 2.889 9.015 1.694 2.066 4.073 3.098 7.136 3.098 1.717 0 3.515-.29 5.395-.87 1.88-.58 3.4-1.242 4.56-1.984l1.949 4.246c-1.207 1.346-3.26 2.623-6.161 3.829-2.901 1.207-5.859 1.81-8.876 1.81Zm4.455-23.739.07-2.923c0-2.924-.394-5.152-1.183-6.683-.789-1.532-2.135-2.298-4.038-2.298-1.949 0-3.458.847-4.525 2.541-1.068 1.694-1.648 4.815-1.74 9.363h11.416ZM77.105 53.875l4.247-.627V27.073l-4.107-1.253v-5.43l11.556-1.532h.209l1.949 1.462v1.671l-.209 5.778h.209c.325-1.067 1.067-2.309 2.228-3.724 1.16-1.416 2.633-2.646 4.42-3.69a11.324 11.324 0 0 1 5.813-1.566c1.207 0 2.135.162 2.785.487v12.113a9.72 9.72 0 0 0-2.402-1.323c-.859-.324-1.961-.487-3.307-.487-1.671 0-3.179.221-4.525.661-1.346.441-2.413.94-3.202 1.497v21.511l7.658.697v4.525H77.105v-4.595ZM117.204 13.776c-1.81 0-3.272-.533-4.386-1.601-1.114-1.067-1.671-2.436-1.671-4.107 0-1.949.615-3.55 1.845-4.803 1.23-1.254 2.889-1.88 4.978-1.88 2.088 0 3.689.534 4.803 1.601 1.114 1.067 1.671 2.437 1.671 4.107 0 1.996-.627 3.609-1.88 4.839-1.253 1.23-3.016 1.844-5.29 1.844h-.07Zm-4.247 13.297-4.664-1.323v-5.221l13.923-1.671h.139l2.159 1.462v32.928l4.176.627v4.595h-20.049v-4.595l4.316-.627V27.073ZM136.348 25.611h-5.43v-4.316l5.43-1.392v-2.924c0-3.11.836-5.941 2.506-8.493 1.671-2.553 3.91-4.572 6.718-6.057C148.38.944 151.408.201 154.657.201c1.717 0 3.272.232 4.664.697v10.094c-.51-.557-1.508-1.102-2.993-1.636-1.485-.534-2.947-.801-4.386-.801-1.532 0-2.622.395-3.272 1.184-.65.789-.975 2.088-.975 3.898v6.196h8.354v5.778h-8.354v27.637l7.032.627v4.595h-23.739v-4.595l5.36-.627V25.611Z"/>
  <path d="M190.161 59.166c-1.671 0-2.878-.36-3.62-1.079-.743-.72-1.114-1.776-1.114-3.168v-1.531c-1.114 1.531-2.785 2.889-5.012 4.072-2.228 1.184-4.479 1.775-6.753 1.775-4.548 0-7.785-1.125-9.711-3.376-1.926-2.251-2.889-6.022-2.889-11.313V25.193l-3.272-.905v-4.455l13.087-.905h.07l1.532.975v24.922c0 3.017.371 5.117 1.113 6.3.743 1.184 2.066 1.775 3.968 1.775 2.599 0 4.781-.882 6.544-2.645V25.193l-4.316-1.044v-4.316l13.784-.905h.209l1.671.975v33.763h3.689v4.455a69.325 69.325 0 0 1-4.351.766c-1.322.186-2.866.279-4.629.279ZM209.096 59.026c-1.578 0-2.958-.556-4.142-1.67-1.183-1.114-1.775-2.483-1.775-4.108 0-1.856.673-3.376 2.019-4.559 1.346-1.184 3.016-1.776 5.012-1.776 1.81 0 3.272.58 4.386 1.741 1.114 1.16 1.671 2.529 1.671 4.107 0 1.949-.65 3.481-1.95 4.595-1.299 1.114-3.039 1.67-5.221 1.67ZM221.975 39.325c0-4.455.882-8.226 2.645-11.312 1.764-3.086 4.143-5.395 7.136-6.927 2.993-1.531 6.277-2.297 9.851-2.297 5.847 0 10.43 1.752 13.749 5.256 3.318 3.504 4.977 8.388 4.977 14.654 0 4.594-.882 8.423-2.645 11.486-1.764 3.063-4.131 5.337-7.101 6.823-2.97 1.485-6.289 2.227-9.955 2.227-5.801 0-10.361-1.752-13.679-5.256-3.319-3.504-4.978-8.388-4.978-14.654Zm19.353 15.037c2.228 0 3.887-1.195 4.978-3.585 1.09-2.39 1.636-6.138 1.636-11.243 0-5.43-.523-9.433-1.567-12.009-1.044-2.575-2.796-3.863-5.256-3.863-4.548 0-6.822 4.943-6.822 14.828 0 5.383.557 9.375 1.671 11.974 1.114 2.599 2.9 3.898 5.36 3.898ZM264.789 53.875l4.246-.627V27.073l-4.107-1.253v-5.43l11.556-1.532h.209l1.949 1.462v1.671l-.209 5.778h.209c.325-1.067 1.067-2.309 2.228-3.724 1.16-1.416 2.633-2.646 4.42-3.69a11.324 11.324 0 0 1 5.813-1.566c1.207 0 2.135.162 2.785.487v12.113a9.72 9.72 0 0 0-2.402-1.323c-.859-.324-1.961-.487-3.307-.487-1.67 0-3.179.221-4.525.661-1.346.441-2.413.94-3.202 1.497v21.511l7.658.697v4.525h-23.321v-4.595ZM313.589 77.266c-6.405 0-11.034-.998-13.888-2.994-2.855-1.995-4.282-4.664-4.282-8.006 0-1.856.627-3.62 1.88-5.29a11.712 11.712 0 0 1 4.734-3.76c-2.182-1.253-3.272-3.248-3.272-5.986 0-1.486.51-2.936 1.531-4.351 1.021-1.416 2.391-2.495 4.108-3.238-5.152-1.902-7.728-5.847-7.728-11.834 0-2.646.789-4.954 2.367-6.927 1.578-1.972 3.713-3.481 6.405-4.525 2.692-1.044 5.662-1.566 8.911-1.566 5.801 0 10.048 1.067 12.739 3.202.65-.789 1.671-1.543 3.063-2.262 1.393-.72 2.831-1.079 4.317-1.079h2.506v8.493h-6.892c.464 1.299.696 2.622.696 3.968 0 4.269-1.508 7.657-4.525 10.164-3.017 2.506-7.31 3.759-12.879 3.759-2.274 0-4.154-.163-5.639-.488a9.262 9.262 0 0 0-.661 1.741c-.163.603-.244 1.09-.244 1.462 0 1.438.534 2.425 1.601 2.958 1.068.534 3.017.801 5.848.801h7.17c9.793 0 14.689 3.504 14.689 10.512 0 3.063-1.067 5.755-3.202 8.075-2.135 2.321-4.931 4.096-8.389 5.326-3.457 1.23-7.112 1.845-10.964 1.845Zm.487-36.966c1.949 0 3.353-.731 4.212-2.193.859-1.462 1.288-3.562 1.288-6.3 0-2.97-.441-5.129-1.323-6.474-.882-1.346-2.297-2.019-4.246-2.019-3.945 0-5.918 2.738-5.918 8.214 0 5.848 1.996 8.772 5.987 8.772Zm.836 31.745c2.552 0 4.733-.673 6.543-2.019 1.81-1.346 2.715-3.249 2.715-5.709 0-1.949-.487-3.33-1.461-4.142-.975-.812-2.692-1.218-5.152-1.218h-7.101c-.742 0-1.578-.047-2.506-.139-.882 1.438-1.323 3.225-1.323 5.36 0 5.244 2.762 7.867 8.285 7.867Z"/>
</svg>
