<svg xmlns="http://www.w3.org/2000/svg" fill="#f2f2f2" stroke-linecap="round" viewBox="0 0 960 4800"><path d="M586.834 1908.72v-105.33c81.254-23.08 146.959-68.1 197.116-135.07 50.157-66.96 75.235-142.69 75.235-227.21 0-84.5-25.329-159.86-75.988-226.06-50.658-66.21-116.112-112.35-196.363-138.44V971.285c108.84 25.079 198.244 81.375 268.213 168.905C925.016 1227.71 960 1327.4 960 1439.25s-34.734 211.78-104.201 299.81c-69.467 88.03-159.122 144.58-268.965 169.66ZM0 1573.92v-270.85h209.154l276.865-276.86v824.57l-276.865-276.86H0Zm586.834 85.77v-440.88c44.76 19.46 80.527 48.78 107.3 87.95 26.774 39.17 40.161 83.32 40.161 132.46 0 48.67-13.387 92.67-40.161 132.01-26.773 39.32-62.54 68.81-107.3 88.46Zm-201.63-390.47-134.671 134.67H100.815v69.21h149.718l134.671 134.67v-338.55Z"/><path fill="none" stroke="#f2f2f2" stroke-width="120" d="M830 2400c0 193.17-156.83 350-350 350s-350-156.83-350-350 156.83-350 350-350"/><path d="M155 3035h650v650H155zm145 1585h360v-90H300v90Zm0-180h360v-90H300v90Zm-90.35 360c-24.767 0-45.9-8.81-63.4-26.44-17.5-17.62-26.25-38.81-26.25-63.56v-780c0-24.75 8.813-45.94 26.438-63.56C164.063 3848.81 185.25 3840 210 3840h390l240 240v630c0 24.75-8.817 45.94-26.45 63.56-17.633 17.63-38.833 26.44-63.6 26.44h-540.3ZM540 4140v-210H210v780h540v-570H540Zm-330-210v236.25V3930v780-780Zm30.002-3290.002v-53.332h479.996v53.332H240.002Zm0-133.332v-53.332h479.996v53.332H240.002Zm0-133.332v-53.332h479.996v53.332H240.002Z"/></svg>